<svg xmlns="http://www.w3.org/2000/svg" viewBox="0 0 32 32">
  <defs>
    <linearGradient id="g" x1="0" y1="0" x2="1" y2="1">
      <stop offset="0%" stop-color="#667eea"/>
      <stop offset="100%" stop-color="#764ba2"/>
    </linearGradient>
  </defs>
  <rect width="32" height="32" rx="6" fill="url(#g)"/>
  <g transform="translate(6,4)" fill="white">
    <path d="M10 2c-3 3-5 8-5 12l-2 3 3 3 3-2c4 0 9-2 12-5 4-4 3-9 3-9s-5-1-9 3l-5-5z" opacity=".9"/>
    <circle cx="14" cy="8" r="2" fill="#764ba2"/>
    <path d="M3 17c-1 1-1 4-1 4s3 0 4-1l-3-3z" opacity=".7"/>
    <path d="M6 20c-1 1-1 4-1 4s3 0 4-1l-3-3z" opacity=".7"/>
  </g>
</svg>
